HIERARCHY
ROOT Hips
{
	OFFSET 0.000000 0.000000 0.000000
	CHANNELS 6 Xposition Yposition Zposition Xrotation Yrotation Zrotation
	JOINT LeftUpLeg_virtual
	{
		OFFSET 0.000000 0.000000 0.000000
		CHANNELS 3 Xrotation Yrotation Zrotation
		JOINT LeftUpLeg
		{
			OFFSET 13.026900 -6.336304 -1.092800
			CHANNELS 3 Xrotation Yrotation Zrotation
			JOINT LeftLeg
			{
				OFFSET 0.524474 -46.096886 9.782700
				CHANNELS 3 Xrotation Yrotation Zrotation
				JOINT LeftFoot
				{
					OFFSET -0.524474 -53.427422 -12.948200
					CHANNELS 3 Xrotation Yrotation Zrotation
					JOINT LeftToeBase
					{
						OFFSET 0.192200 -14.009700 16.364100
						CHANNELS 3 Xrotation Yrotation Zrotation
						JOINT LeftToe_End
						{
							OFFSET -1.784700 -0.561700 9.474800
							CHANNELS 3 Xrotation Yrotation Zrotation
							End Site
							{
								OFFSET 0 0 0
							}
						}
					}
				}
			}
		}
	}
	JOINT RightUpLeg_virtual
	{
		OFFSET 0.000000 0.000000 0.000000
		CHANNELS 3 Xrotation Yrotation Zrotation
		JOINT RightUpLeg
		{
			OFFSET -12.883000 -6.336304 -1.092800
			CHANNELS 3 Xrotation Yrotation Zrotation
			JOINT RightLeg
			{
				OFFSET -0.524587 -46.096825 9.782800
				CHANNELS 3 Xrotation Yrotation Zrotation
				JOINT RightFoot
				{
					OFFSET 0.524587 -53.427383 -12.948300
					CHANNELS 3 Xrotation Yrotation Zrotation
					JOINT RightToeBase
					{
						OFFSET -0.192200 -14.009700 16.364100
						CHANNELS 3 Xrotation Yrotation Zrotation
						JOINT RightToe_End
						{
							OFFSET 1.784700 -0.561700 9.474800
							CHANNELS 3 Xrotation Yrotation Zrotation
							End Site
							{
								OFFSET 0 0 0
							}
						}
					}
				}
			}
		}
	}
	JOINT Spine_virtual
	{
		OFFSET 0.000000 0.000000 0.000000
		CHANNELS 3 Xrotation Yrotation Zrotation
		JOINT Spine
		{
			OFFSET 0.072000 7.257294 -0.789700
			CHANNELS 3 Xrotation Yrotation Zrotation
			JOINT Spine1
			{
				OFFSET 0.000000 12.508769 -0.658067
				CHANNELS 3 Xrotation Yrotation Zrotation
				JOINT Spine1_split
				{
					OFFSET 0.000000 12.508769 -0.658067
					CHANNELS 3 Xrotation Yrotation Zrotation
					JOINT Spine2
					{
						OFFSET 0.000000 12.508769 -0.658067
						CHANNELS 3 Xrotation Yrotation Zrotation
						JOINT Neck_virtual
						{
							OFFSET 0.000000 0.000000 0.000000
							CHANNELS 3 Xrotation Yrotation Zrotation
							JOINT Neck
							{
								OFFSET 0.000000 14.033295 7.520400
								CHANNELS 3 Xrotation Yrotation Zrotation
								JOINT Head
								{
									OFFSET 0.000000 8.198502 5.703100
									CHANNELS 3 Xrotation Yrotation Zrotation
									JOINT HeadTop_End
									{
										OFFSET 0.000000 17.760803 13.332701
										CHANNELS 3 Xrotation Yrotation Zrotation
										End Site
										{
											OFFSET 0 0 0
										}
									}
								}
							}
						}
						JOINT LeftShoulder_virtual
						{
							OFFSET 0.000000 0.000000 0.000000
							CHANNELS 3 Xrotation Yrotation Zrotation
							JOINT LeftShoulder
							{
								OFFSET 6.292450 5.785301 -0.669000
								CHANNELS 3 Xrotation Yrotation Zrotation
								JOINT LeftShoulder_split
								{
									OFFSET 6.292450 5.785301 -0.669000
									CHANNELS 3 Xrotation Yrotation Zrotation
									JOINT LeftArm
									{
										OFFSET 13.907140 -6.093903 1.965100
										CHANNELS 3 Xrotation Yrotation Zrotation
										JOINT LeftForeArm
										{
											OFFSET 34.140198 0.000000 0.000000
											CHANNELS 3 Xrotation Yrotation Zrotation
											JOINT LeftHand
											{
												OFFSET 40.960209 0.000000 0.000000
												CHANNELS 3 Xrotation Yrotation Zrotation
												End Site
												{
													OFFSET 0 0 0
												}
											}
										}
									}
								}
							}
						}
						JOINT RightShoulder_virtual
						{
							OFFSET 0.000000 0.000000 0.000000
							CHANNELS 3 Xrotation Yrotation Zrotation
							JOINT RightShoulder
							{
								OFFSET -6.292450 5.785301 -0.669000
								CHANNELS 3 Xrotation Yrotation Zrotation
								JOINT RightShoulder_split
								{
									OFFSET -6.292450 5.785301 -0.669000
									CHANNELS 3 Xrotation Yrotation Zrotation
									JOINT RightArm
									{
										OFFSET -13.907140 -6.093903 1.965100
										CHANNELS 3 Xrotation Yrotation Zrotation
										JOINT RightForeArm
										{
											OFFSET -34.140198 0.000000 0.000000
											CHANNELS 3 Xrotation Yrotation Zrotation
											JOINT RightHand
											{
												OFFSET -40.960209 0.000000 0.000000
												CHANNELS 3 Xrotation Yrotation Zrotation
												End Site
												{
													OFFSET 0 0 0
												}
											}
										}
									}
								}
							}
						}
					}
				}
			}
		}
	}
}
MOTION
Frames: 10
Frame Time: 0.03333333
-5.228108 96.614677 -4.108551 0.000000 0.000000 0.000000 26.362708 -44.338385 9.583995 -84.239510 0.005458 14.016449 53.104267 -0.768760 -2.771571 17.985010 -2.399511 -15.647262 -5.893259 0.944750 2.979702 0.000000 0.000000 0.000000 24.409023 -44.506431 8.435420 -33.261990 -14.871072 -19.445380 46.718111 -14.783777 7.072128 -16.016896 -11.103457 25.965219 -3.836053 0.220097 3.614745 0.000000 0.000000 0.000000 28.792700 -45.715061 10.678561 -0.104407 7.044513 -1.341561 -1.459748 2.391437 0.361012 0.842428 -0.612701 0.394911 0.000000 0.000000 0.000000 0.608475 0.082170 1.141517 10.939870 6.445293 -7.843316 -3.065116 20.835454 11.301300 0.000000 0.000000 0.000000 -2.349381 1.078060 0.803617 3.308555 2.590030 -9.466420 0.565731 4.316394 1.511021 -52.354892 -29.329720 -46.353086 1.102854 -70.119678 2.473077 0.000000 0.000000 0.000000 -2.019801 0.108021 0.837212 -12.747685 -1.796057 -2.821726 -8.788355 -1.204990 -1.785558 -106.691523 37.817579 126.294569 -4.707789 24.475991 2.332664 0.000000 0.000000 0.000000 
-4.454573 97.512405 -8.889103 0.000000 0.000000 0.000000 26.270690 -42.811045 8.512023 -81.511703 -0.042062 12.788313 55.946291 -1.112149 -2.314863 15.053457 -2.521567 -15.124870 -6.855018 0.317903 4.063393 0.000000 0.000000 0.000000 24.673343 -44.307922 8.034914 -33.620650 -16.878586 -17.654384 45.249088 -13.847619 6.625619 -16.982618 -10.215931 26.172581 -2.013344 0.768556 2.664424 0.000000 0.000000 0.000000 30.173351 -45.755089 11.024919 -0.385984 7.279863 -1.051569 -1.458375 2.559500 0.311683 1.701672 -0.431322 0.526144 0.000000 0.000000 0.000000 0.661203 0.203562 1.124301 10.962420 6.153800 -7.605008 -2.871855 20.770511 11.178849 0.000000 0.000000 0.000000 -2.146408 1.164529 0.754402 3.191724 2.185867 -9.722444 1.098457 4.464388 1.182446 -51.904612 -29.578179 -46.141736 1.159405 -69.659078 2.432158 0.000000 0.000000 0.000000 -1.799593 0.337876 0.914703 -12.759825 -1.798415 -2.538694 -9.048412 -0.884838 -1.775032 -106.938530 38.303230 126.549117 -4.422395 23.176707 2.269919 0.000000 0.000000 0.000000 
-3.372900 98.395493 -15.536884 0.000000 0.000000 0.000000 26.419745 -43.094614 7.794500 -77.731248 -0.046611 10.634890 59.186191 -2.539532 -0.958556 11.671331 -4.228565 -14.776547 -8.292279 -0.194638 4.470580 0.000000 0.000000 0.000000 25.406361 -45.987244 8.187433 -35.923916 -19.420690 -16.118902 44.460669 -12.190751 6.356611 -15.961165 -8.131066 27.324961 -3.839120 1.203734 0.840550 0.000000 0.000000 0.000000 31.876428 -46.902342 11.659140 -0.462144 7.914588 -0.536522 -1.415317 3.040448 0.322925 2.071985 -0.384582 0.667469 0.000000 0.000000 0.000000 0.754396 0.620268 1.129079 10.828875 5.663528 -7.096141 -2.512559 19.991887 11.256457 0.000000 0.000000 0.000000 -1.986534 1.558857 0.763918 3.007709 1.507844 -10.042956 1.363711 4.327736 1.032906 -51.642528 -30.198667 -45.942991 0.842014 -69.903325 2.083860 0.000000 0.000000 0.000000 -1.488020 0.868594 1.027913 -12.908246 -1.981965 -1.858743 -9.212303 -0.761756 -2.036854 -107.131804 38.701720 126.513968 -3.984235 22.035997 2.025702 0.000000 0.000000 0.000000 
-2.558882 98.664490 -22.982594 0.000000 0.000000 0.000000 27.025812 -45.355864 7.835122 -73.510963 0.213880 8.572319 61.121560 -4.228985 0.490604 7.561770 -6.522815 -13.032828 -11.513270 -0.713517 4.927818 0.000000 0.000000 0.000000 26.283137 -49.301798 8.836677 -38.915915 -21.694568 -15.377046 45.241872 -10.276822 6.351033 -14.226609 -6.117908 28.189104 -7.332165 1.537836 -1.122554 0.000000 0.000000 0.000000 33.568874 -48.951706 12.566958 -0.350341 8.828802 0.102255 -1.396197 3.706132 0.385693 1.592629 -0.350841 0.763491 0.000000 0.000000 0.000000 0.832522 1.222568 1.164482 10.502746 5.106301 -6.423949 -2.148157 18.799782 11.444765 0.000000 0.000000 0.000000 -1.889069 2.137374 0.821126 2.805442 0.756267 -10.338402 1.488872 4.070477 0.944374 -51.581920 -31.023399 -45.617085 0.128248 -70.627735 1.394678 0.000000 0.000000 0.000000 -1.165848 1.571969 1.171293 -13.139551 -2.282356 -1.047157 -9.363232 -0.888751 -2.343706 -107.160054 38.816675 126.179877 -3.529098 21.440906 1.694481 0.000000 0.000000 0.000000 
-2.256755 97.975609 -30.225697 0.000000 0.000000 0.000000 28.054150 -48.776082 8.589752 -69.293260 0.678650 7.128637 61.570187 -5.110266 1.330451 2.447881 -7.981843 -8.593713 -14.330304 -1.031249 4.995601 0.000000 0.000000 0.000000 27.203172 -53.402404 9.787316 -39.950415 -22.695421 -15.266762 47.058019 -9.225933 6.400196 -12.913461 -6.161361 26.816252 -9.202439 1.639702 -2.531385 0.000000 0.000000 0.000000 34.489044 -51.261109 13.189767 -0.036427 9.862079 0.728711 -1.438155 4.377669 0.510392 1.034610 -0.219891 0.841346 0.000000 0.000000 0.000000 0.835935 1.816822 1.235637 10.086078 4.563748 -5.722874 -1.891568 17.602390 11.611678 0.000000 0.000000 0.000000 -1.844646 2.698888 0.900357 2.656740 0.182409 -10.714363 1.482357 3.974958 0.931491 -51.662096 -31.843097 -45.146987 -0.921690 -71.366611 0.401397 0.000000 0.000000 0.000000 -0.930155 2.266657 1.335011 -13.357688 -2.623327 -0.373943 -9.142399 -1.104084 -2.570020 -106.929589 38.490274 125.581825 -3.189523 21.594253 1.406546 0.000000 0.000000 0.000000 
-2.479753 96.327309 -37.304493 0.000000 0.000000 0.000000 29.063889 -52.424454 9.723658 -67.097538 0.903160 7.128010 61.762211 -4.970520 1.117078 -2.937357 -8.199803 -2.199505 -12.728424 -0.656088 3.818752 0.000000 0.000000 0.000000 27.848611 -57.143818 10.747578 -37.417047 -21.550328 -15.831301 48.728421 -8.994885 6.133401 -11.802530 -8.909350 23.660011 -8.333946 1.429651 -3.045047 0.000000 0.000000 0.000000 34.666386 -53.399536 13.424260 0.398024 10.831630 1.280382 -1.576192 4.856940 0.672808 1.039611 -0.055803 0.553995 0.000000 0.000000 0.000000 0.719632 2.250435 1.333051 9.697511 4.095537 -5.106924 -1.683593 16.700045 11.657867 0.000000 0.000000 0.000000 -1.878041 3.075355 0.965950 2.584090 -0.123906 -11.139977 1.492732 3.980184 1.035449 -51.864256 -32.486924 -44.692042 -2.065579 -71.692343 -0.684765 0.000000 0.000000 0.000000 -0.820641 2.794791 1.513411 -13.491315 -2.854536 -0.067093 -8.579888 -1.255669 -2.698850 -106.479384 37.743420 124.828824 -3.042726 22.343845 1.281661 0.000000 0.000000 0.000000 
-2.888326 93.911774 -44.345341 0.000000 0.000000 0.000000 29.778467 -55.817931 10.980812 -67.887436 0.731268 9.112586 62.422752 -4.183783 -0.027348 -7.193765 -7.756682 3.721637 -7.092842 0.112902 1.608770 0.000000 0.000000 0.000000 28.473158 -60.277744 11.810909 -31.704871 -17.755739 -17.510023 48.448294 -8.696810 4.938311 -9.826830 -13.518685 21.071180 -5.836804 1.054183 -2.562175 0.000000 0.000000 0.000000 34.358218 -55.430844 13.575682 0.872103 11.669323 1.521771 -1.766711 5.059296 0.808069 1.465775 -0.052421 0.359973 0.000000 0.000000 0.000000 0.514742 2.451899 1.469601 9.450660 3.730007 -4.646753 -1.430316 16.219104 11.584985 0.000000 0.000000 0.000000 -1.949019 3.195993 1.020738 2.601948 -0.053419 -11.558452 1.542571 3.840066 1.133967 -52.285559 -33.014744 -44.564215 -2.921666 -71.590075 -1.485519 0.000000 0.000000 0.000000 -0.892423 3.040879 1.659146 -13.548799 -2.801743 -0.092395 -7.897364 -1.404833 -2.703433 -106.007302 36.653565 123.951322 -3.084212 23.269500 1.375903 0.000000 0.000000 0.000000 
-3.245838 91.309906 -50.625477 0.000000 0.000000 0.000000 30.013613 -58.522304 12.071862 -70.603058 -0.515060 12.184016 64.246194 -3.950497 -0.980492 -8.770012 -7.004257 6.375792 -1.952097 0.684152 -0.418090 0.000000 0.000000 0.000000 29.606657 -62.615199 13.355135 -23.619947 -11.663298 -20.676610 44.704479 -7.399139 2.393944 -5.733110 -18.718113 21.712697 -3.215653 0.705513 -1.474845 0.000000 0.000000 0.000000 33.873715 -57.168369 13.911176 1.338382 12.363011 1.329004 -1.953339 5.022445 0.879219 1.606392 -0.286997 0.398589 0.000000 0.000000 0.000000 0.206841 2.432594 1.603389 9.359472 3.484982 -4.390235 -1.020094 16.127555 11.425288 0.000000 0.000000 0.000000 -2.064071 3.123037 1.059073 2.694510 0.363767 -11.921194 1.379053 3.621116 1.274957 -52.885683 -33.482844 -44.977878 -3.325930 -71.237507 -1.823599 0.000000 0.000000 0.000000 -1.143088 3.039790 1.719320 -13.574299 -2.465145 -0.299066 -7.093037 -1.670573 -2.615081 -105.851328 35.447230 123.101333 -3.256274 23.920671 1.653388 0.000000 0.000000 0.000000 
-3.518839 88.964615 -56.309368 0.000000 0.000000 0.000000 30.072326 -60.858980 13.235323 -73.364175 -2.882893 15.180700 66.354953 -4.594323 -0.978981 -8.612510 -6.526239 5.349820 -0.871792 1.020213 -1.116996 0.000000 0.000000 0.000000 31.482162 -64.356542 15.665321 -14.641656 -4.944952 -24.879813 37.857075 -4.719248 -0.931104 0.540298 -22.898638 26.291107 -1.253257 0.521215 -0.286284 0.000000 0.000000 0.000000 33.595918 -58.755685 14.796932 1.719470 12.901435 0.765474 -2.137458 4.888402 0.858447 1.325932 -0.645105 0.352424 0.000000 0.000000 0.000000 -0.232895 2.332325 1.657260 9.380525 3.320442 -4.360348 -0.351644 16.250968 11.223803 0.000000 0.000000 0.000000 -2.216174 3.026046 1.054841 2.822749 0.957998 -12.137140 1.110743 3.318309 1.381584 -53.579371 -33.800796 -45.897881 -3.312281 -70.957640 -1.734681 0.000000 0.000000 0.000000 -1.491771 2.947747 1.658784 -13.602311 -1.972274 -0.525252 -6.347879 -2.128429 -2.404389 -106.177183 34.502772 122.433286 -3.416674 24.028986 1.982461 0.000000 0.000000 0.000000 
-3.636598 87.062042 -61.353245 0.000000 0.000000 0.000000 30.516302 -63.380672 15.087089 -74.668762 -5.381085 17.997579 67.521672 -5.414562 -0.024836 -7.932429 -6.697924 2.102775 -3.206099 1.152659 -0.613222 0.000000 0.000000 0.000000 33.766478 -65.758821 18.584286 -6.439268 0.812744 -28.944170 30.227890 -1.160546 -3.984793 6.500710 -25.468841 32.611787 0.098740 0.471415 0.659803 0.000000 0.000000 0.000000 33.714551 -60.366086 16.339759 2.020357 13.303977 -0.035750 -2.322249 4.856796 0.720490 0.997723 -1.235350 0.490579 0.000000 0.000000 0.000000 -0.718055 2.349247 1.571789 9.453630 3.207125 -4.514983 0.597572 16.378689 11.032639 0.000000 0.000000 0.000000 -2.357426 3.067671 0.987640 2.958229 1.621134 -12.209207 0.820880 2.765671 1.452978 -54.184246 -33.795960 -47.077123 -3.088283 -71.107112 -1.434011 0.000000 0.000000 0.000000 -1.876130 2.936556 1.471343 -13.653171 -1.487252 -0.675482 -5.712978 -2.658158 -2.151289 -106.833461 33.976120 121.973108 -3.437975 23.696493 2.225304 0.000000 0.000000 0.000000 
